<svg width="35" height="35" viewBox="0 0 35 35" fill="none" xmlns="http://www.w3.org/2000/svg">
<path d="M27.7083 5.83334H24.7917V4.37501C24.7917 3.98823 24.638 3.6173 24.3645 3.34381C24.091 3.07032 23.7201 2.91667 23.3333 2.91667C22.9466 2.91667 22.5756 3.07032 22.3021 3.34381C22.0287 3.6173 21.875 3.98823 21.875 4.37501V5.83334H13.125V4.37501C13.125 3.98823 12.9714 3.6173 12.6979 3.34381C12.4244 3.07032 12.0534 2.91667 11.6667 2.91667C11.2799 2.91667 10.909 3.07032 10.6355 3.34381C10.362 3.6173 10.2083 3.98823 10.2083 4.37501V5.83334H7.29167C6.13135 5.83334 5.01855 6.29427 4.19808 7.11475C3.37761 7.93522 2.91667 9.04802 2.91667 10.2083V27.7083C2.91667 28.8687 3.37761 29.9815 4.19808 30.8019C5.01855 31.6224 6.13135 32.0833 7.29167 32.0833H27.7083C28.8687 32.0833 29.9815 31.6224 30.8019 30.8019C31.6224 29.9815 32.0833 28.8687 32.0833 27.7083V10.2083C32.0833 9.04802 31.6224 7.93522 30.8019 7.11475C29.9815 6.29427 28.8687 5.83334 27.7083 5.83334ZM29.1667 27.7083C29.1667 28.0951 29.013 28.466 28.7395 28.7395C28.466 29.013 28.0951 29.1667 27.7083 29.1667H7.29167C6.9049 29.1667 6.53397 29.013 6.26047 28.7395C5.98698 28.466 5.83334 28.0951 5.83334 27.7083V17.5H29.1667V27.7083ZM29.1667 14.5833H5.83334V10.2083C5.83334 9.82156 5.98698 9.45063 6.26047 9.17714C6.53397 8.90365 6.9049 8.75001 7.29167 8.75001H10.2083V10.2083C10.2083 10.5951 10.362 10.966 10.6355 11.2395C10.909 11.513 11.2799 11.6667 11.6667 11.6667C12.0534 11.6667 12.4244 11.513 12.6979 11.2395C12.9714 10.966 13.125 10.5951 13.125 10.2083V8.75001H21.875V10.2083C21.875 10.5951 22.0287 10.966 22.3021 11.2395C22.5756 11.513 22.9466 11.6667 23.3333 11.6667C23.7201 11.6667 24.091 11.513 24.3645 11.2395C24.638 10.966 24.7917 10.5951 24.7917 10.2083V8.75001H27.7083C28.0951 8.75001 28.466 8.90365 28.7395 9.17714C29.013 9.45063 29.1667 9.82156 29.1667 10.2083V14.5833Z" fill="#766DFF"/>
</svg>
