<svg width="20" height="20" viewBox="0 0 20 20" fill="none" xmlns="http://www.w3.org/2000/svg">
<path fill-rule="evenodd" clip-rule="evenodd" d="M9.99961 2.39258C5.69221 2.39258 2.20001 5.88498 2.20001 10.193C2.20001 13.6392 4.43441 16.5628 7.53421 17.5936C7.92461 17.6658 8.06661 17.4256 8.06661 17.2182C8.06661 17.0334 8.05981 16.5432 8.05641 15.8916C5.88661 16.3634 5.42881 14.8458 5.42881 14.8458C5.07401 13.9448 4.56261 13.7052 4.56261 13.7052C3.85441 13.2216 4.61641 13.231 4.61641 13.231C5.39921 13.2864 5.81121 14.0346 5.81121 14.0346C6.50681 15.2266 7.63701 14.8816 8.08121 14.6832C8.15181 14.1782 8.35381 13.8352 8.57641 13.6398C6.84461 13.443 5.02381 12.7738 5.02381 9.78498C5.02381 8.93318 5.32761 8.23678 5.82641 7.69138C5.74661 7.49498 5.47841 6.70198 5.90301 5.62758C5.90301 5.62758 6.55781 5.41798 8.04821 6.42778C8.67001 6.25398 9.33741 6.16718 10.0008 6.16458C10.6632 6.16738 11.3308 6.25398 11.9534 6.42778C13.4428 5.41798 14.0966 5.62758 14.0966 5.62758C14.5222 6.70198 14.2542 7.49498 14.1742 7.69138C14.6742 8.23678 14.9758 8.93318 14.9758 9.78498C14.9758 12.7808 13.1524 13.4408 11.4148 13.6332C11.6944 13.8742 11.944 14.3512 11.944 15.079C11.944 16.1212 11.9346 16.9622 11.9346 17.218C11.9346 17.427 12.0748 17.67 12.4708 17.5926C15.5672 16.5596 17.8 13.6382 17.8 10.193C17.8 5.88498 14.3078 2.39258 9.99961 2.39258Z" fill="#AAAAAA"/>
</svg>
