<svg width="46" height="45" viewBox="0 0 46 45" fill="none" xmlns="http://www.w3.org/2000/svg">
<path d="M40.1811 0H4.82393C2.1621 0 0.00250244 2.1596 0.00250244 4.82143V40.1786C0.00250244 42.8404 2.1621 45 4.82393 45H40.1811C42.8429 45 45.0025 42.8404 45.0025 40.1786V4.82143C45.0025 2.1596 42.8429 0 40.1811 0ZM27.8563 38.5413C27.0125 38.692 26.7012 38.1696 26.7012 37.7377C26.7012 37.1953 26.7213 34.423 26.7213 32.183C26.7213 30.6161 26.1989 29.6217 25.5862 29.0993C29.3027 28.6875 33.2201 28.1752 33.2201 21.7567C33.2201 19.9286 32.5672 19.0145 31.5025 17.8393C31.6733 17.4074 32.2458 15.6295 31.3317 13.3192C29.9355 12.8873 26.7413 15.1172 26.7413 15.1172C25.4154 14.7455 23.9791 14.5547 22.5628 14.5547C21.1465 14.5547 19.7101 14.7455 18.3842 15.1172C18.3842 15.1172 15.19 12.8873 13.7938 13.3192C12.8797 15.6194 13.4422 17.3973 13.623 17.8393C12.5583 19.0145 12.0561 19.9286 12.0561 21.7567C12.0561 28.1451 15.8027 28.6875 19.5192 29.0993C19.0371 29.5312 18.6052 30.2746 18.4545 31.3393C17.5003 31.7712 15.0594 32.5145 13.6029 29.9431C12.6889 28.356 11.0416 28.2254 11.0416 28.2254C9.41433 28.2054 10.9311 29.25 10.9311 29.25C12.0159 29.7522 12.7793 31.6808 12.7793 31.6808C13.7536 34.6641 18.4143 33.6596 18.4143 33.6596C18.4143 35.0558 18.4344 37.3259 18.4344 37.7377C18.4344 38.1696 18.1331 38.692 17.2793 38.5413C10.6498 36.3214 6.0092 30.0134 6.0092 22.6406C6.0092 13.4196 13.0605 6.41853 22.2815 6.41853C31.5025 6.41853 38.9757 13.4196 38.9757 22.6406C38.9858 30.0134 34.4858 36.3315 27.8563 38.5413ZM18.0025 32.404C17.8117 32.4442 17.6308 32.3638 17.6108 32.2333C17.5907 32.0826 17.7213 31.952 17.9121 31.9118C18.1029 31.8917 18.2838 31.9721 18.3038 32.1027C18.334 32.2333 18.2034 32.3638 18.0025 32.404ZM17.0483 32.3136C17.0483 32.4442 16.8976 32.5547 16.6967 32.5547C16.4757 32.5748 16.325 32.4643 16.325 32.3136C16.325 32.183 16.4757 32.0725 16.6766 32.0725C16.8675 32.0525 17.0483 32.1629 17.0483 32.3136ZM15.6721 32.2031C15.632 32.3337 15.4311 32.394 15.2603 32.3337C15.0695 32.2935 14.9389 32.1429 14.9791 32.0123C15.0192 31.8817 15.2201 31.8214 15.3909 31.8616C15.5918 31.9219 15.7224 32.0725 15.6721 32.2031ZM14.4367 31.6607C14.3463 31.7712 14.1554 31.7511 14.0047 31.6004C13.8541 31.4699 13.8139 31.279 13.9143 31.1886C14.0047 31.0781 14.1956 31.0982 14.3463 31.2489C14.4768 31.3795 14.5271 31.5804 14.4367 31.6607ZM13.5226 30.7467C13.4322 30.8069 13.2614 30.7467 13.1509 30.596C13.0404 30.4453 13.0404 30.2746 13.1509 30.2042C13.2614 30.1138 13.4322 30.1842 13.5226 30.3348C13.6331 30.4855 13.6331 30.6663 13.5226 30.7467ZM12.8697 29.7723C12.7793 29.8627 12.6286 29.8125 12.5181 29.7121C12.4076 29.5815 12.3875 29.4308 12.4779 29.3605C12.5683 29.2701 12.719 29.3203 12.8295 29.4208C12.94 29.5513 12.9601 29.702 12.8697 29.7723ZM12.1967 29.029C12.1565 29.1194 12.0259 29.1395 11.9154 29.0692C11.7849 29.0089 11.7246 28.8984 11.7648 28.808C11.805 28.7478 11.9154 28.7176 12.046 28.7679C12.1766 28.8382 12.2369 28.9487 12.1967 29.029Z" fill="#766DFF"/>
</svg>
