<svg width="100" height="141" viewBox="0 0 100 141" fill="none" xmlns="http://www.w3.org/2000/svg">
<g clip-path="url(#clip0)">
<path d="M99.8185 27.6387L90.7414 129.326L49.9391 140.638L9.24922 129.342L0.181465 27.6387H99.8185Z" fill="#E44D26"/>
<path d="M50 131.991L82.9703 122.851L90.727 35.9542H50V131.991Z" fill="#F16529"/>
<path d="M32.3543 60.9016H50V48.4281H18.7224L19.0208 51.7745L22.0867 86.1481H50V73.6746H33.4943L32.3543 60.9016Z" fill="#EBEBEB"/>
<path d="M35.1655 92.385H22.644L24.3914 111.97L49.9426 119.063L50 119.047V106.07L49.9453 106.084L36.0537 102.333L35.1655 92.385Z" fill="#EBEBEB"/>
<path d="M9.45152 0H15.7904V6.26271H21.5891V0H27.9284V18.9651H21.5895V12.6145H15.7908V18.9651H9.45191V0H9.45152Z" fill="black"/>
<path d="M36.2638 6.28927H30.6842V0H48.187V6.28927H42.6039V18.9651H36.265V6.28927H36.2646H36.2638Z" fill="black"/>
<path d="M50.9647 0H57.5742L61.64 6.66382L65.7019 0H72.3141V18.9651H66.001V9.56494L61.64 16.308H61.5306L57.1669 9.56494V18.9651H50.9647V0Z" fill="black"/>
<path d="M75.4688 0H81.8096V12.6965H90.7238V18.9651H75.4684V0H75.4688Z" fill="black"/>
<path d="M49.957 86.1481H65.3168L63.8686 102.325L49.9566 106.08V119.057L75.5281 111.97L75.7156 109.863L78.6472 77.0241L78.9514 73.6746H49.957V86.1481Z" fill="white"/>
<path d="M49.957 60.8711V60.9016H80.0864L80.3364 58.0981L80.905 51.7745L81.203 48.4281H49.957V60.8715V60.8711Z" fill="white"/>
</g>
<defs>
<clipPath id="clip0">
<rect width="100" height="140.994" fill="white"/>
</clipPath>
</defs>
</svg>
