<svg width="88" height="100" viewBox="0 0 88 100" fill="none" xmlns="http://www.w3.org/2000/svg">
<g clip-path="url(#clip0)">
<path d="M41.4246 99.0377C42.1414 99.4519 42.9546 99.67 43.7825 99.67C44.6103 99.67 45.4236 99.4519 46.1404 99.0377L85.2088 76.4932C85.9267 76.0793 86.5229 75.4837 86.9373 74.7661C87.3517 74.0486 87.5698 73.2345 87.5695 72.4058V27.2822C87.5693 26.454 87.3513 25.6404 86.9374 24.9231C86.5235 24.2058 85.9282 23.6099 85.2112 23.1952L46.1428 0.632215C45.425 0.218037 44.611 0 43.7823 0C42.9537 0 42.1396 0.218037 41.4219 0.632215L2.36364 23.1952C1.64643 23.6096 1.05087 24.2054 0.636757 24.9228C0.222645 25.6402 0.00455773 26.4539 0.00439453 27.2822V72.4089C0.00439453 74.0932 0.904052 75.6504 2.36467 76.4928L41.4243 99.0373" fill="#76D04B"/>
<path d="M69.0801 39.0791L67.338 38.0764C70.0171 34.1247 71.6181 28.1832 69.6106 19.3007C69.6106 19.3007 65.0893 31.9716 56.001 31.5517L45.3595 25.4281C44.9625 25.1951 44.5138 25.0646 44.0537 25.0483H43.8082C43.3471 25.0658 42.8974 25.1962 42.4986 25.4281L31.8558 31.5514C22.7684 31.9726 18.2462 19.3004 18.2462 19.3004C16.2373 28.1825 17.841 34.124 20.5195 38.076L18.7773 39.0791C18.3405 39.3315 17.9779 39.6946 17.726 40.1317C17.474 40.5689 17.3418 41.0647 17.3424 41.5692L17.3948 78.3267C17.3948 78.8397 17.6602 79.3147 18.1106 79.5644C18.325 79.6947 18.5711 79.7637 18.822 79.7637C19.073 79.7637 19.3191 79.6947 19.5335 79.5644L33.6308 71.4918C34.5229 70.962 35.0654 70.0274 35.0654 69.0055V51.8336C35.0654 50.8096 35.6078 49.8603 36.4958 49.3531L42.4989 45.8962C42.9345 45.6416 43.4303 45.508 43.9349 45.5093C44.4232 45.5093 44.9253 45.636 45.3602 45.8959L51.3612 49.3528C51.7974 49.6032 52.1596 49.9646 52.4112 50.4001C52.6628 50.8356 52.7947 51.3299 52.7938 51.8329V69.0051C52.7938 70.0267 53.3434 70.9685 54.2301 71.4915L68.3239 79.5634C68.5403 79.6934 68.7879 79.7622 69.0404 79.7622C69.2928 79.7622 69.5405 79.6934 69.7568 79.5634C69.9735 79.4376 70.1533 79.257 70.2782 79.0398C70.403 78.8225 70.4685 78.5763 70.4681 78.3257L70.514 41.5682C70.513 40.5346 69.9708 39.5873 69.0804 39.0784V39.0788L69.0801 39.0791Z" fill="#4F4D3F"/>
</g>
<defs>
<clipPath id="clip0">
<rect width="87.68" height="100" fill="white"/>
</clipPath>
</defs>
</svg>
