<svg width="100" height="141" viewBox="0 0 100 141" fill="none" xmlns="http://www.w3.org/2000/svg">
<g clip-path="url(#clip0)">
<path d="M49.9391 140.638L9.24921 129.342L0.181458 27.6388H99.8185L90.7414 129.326L49.9391 140.638Z" fill="#264DE4"/>
<path d="M82.9703 122.851L90.7269 35.9542H50V131.991L82.9703 122.851Z" fill="#2965F1"/>
<path d="M20.9689 73.6746L22.0867 86.1481H50V73.6746H20.9689Z" fill="#EBEBEB"/>
<path d="M18.7224 48.4282L19.8562 60.9016H50V48.4282H18.7224Z" fill="#EBEBEB"/>
<path d="M50 106.07L49.9453 106.084L36.0537 102.333L35.1655 92.3851H22.644L24.3914 111.97L49.9426 119.063L50 119.047V106.07Z" fill="#EBEBEB"/>
<path d="M23.6306 0H38.7377V6.31778H29.9484V12.6356H38.7385V18.953H23.6306V0Z" fill="black"/>
<path d="M41.7595 0H56.8669V5.49369H48.0772V6.59235H56.8669V19.2279H41.7598V13.4589H50.5495V12.3602H41.7591V0H41.7595Z" fill="black"/>
<path d="M59.8887 0H74.9961V5.49369H66.2065V6.59235H74.9961V19.2279H59.8887V13.4589H68.6783V12.3602H59.8891V0H59.8887Z" fill="black"/>
<path d="M78.9514 73.6747L81.203 48.4282H49.957V60.9016H67.5332L66.3982 73.6747H49.957V86.1482H65.3168L63.8686 102.325L49.9566 106.08V119.057L75.5281 111.97L75.7156 109.863L78.6472 77.0242L78.9514 73.6747Z" fill="white"/>
</g>
<defs>
<clipPath id="clip0">
<rect width="100" height="140.994" fill="white"/>
</clipPath>
</defs>
</svg>
