<svg width="20" height="20" viewBox="0 0 20 20" fill="none" xmlns="http://www.w3.org/2000/svg">
<path d="M18.9524 9.79879C18.9524 8.66119 18.0264 7.73599 16.8894 7.73599C16.3968 7.73599 15.936 7.91619 15.5642 8.23139C15.5522 8.23879 15.5398 8.24579 15.528 8.25339C14.1866 7.39519 12.4078 6.84719 10.4402 6.77279L11.6146 3.43319L14.5458 4.13399C14.5482 5.06059 15.302 5.81399 16.2298 5.81399C17.1582 5.81399 17.9142 5.05859 17.9142 4.12979C17.9142 3.20059 17.1582 2.44519 16.2298 2.44519C15.524 2.44519 14.921 2.88159 14.671 3.49719L11.1982 2.66719L9.75599 6.76519C7.70419 6.80379 5.84479 7.35899 4.45339 8.24599C4.07879 7.92099 3.61139 7.73579 3.10979 7.73579C1.97239 7.73579 1.04779 8.66119 1.04779 9.79859C1.04779 10.5022 1.41079 11.1522 1.99899 11.5306C1.96143 11.7367 1.94183 11.9457 1.94039 12.1552C1.94039 15.1324 5.54899 17.5546 9.98419 17.5546C14.4202 17.5546 18.029 15.1324 18.029 12.1552C18.0279 11.9517 18.0097 11.7486 17.9746 11.5482C18.5786 11.1726 18.9524 10.5132 18.9524 9.79879ZM12.7196 12.4694C12.5532 12.4694 12.3884 12.4366 12.2346 12.3729C12.0808 12.3092 11.9411 12.2159 11.8235 12.0981C11.7058 11.9804 11.6125 11.8406 11.5489 11.6869C11.4853 11.5331 11.4527 11.3682 11.4528 11.2018C11.4528 10.9511 11.5272 10.7061 11.6665 10.4977C11.8058 10.2892 12.0038 10.1268 12.2355 10.031C12.4671 9.93507 12.7219 9.91004 12.9678 9.95901C13.2136 10.008 13.4395 10.1288 13.6167 10.3061C13.7939 10.4834 13.9145 10.7093 13.9633 10.9552C14.0121 11.2011 13.9869 11.4559 13.8909 11.6875C13.7949 11.919 13.6324 12.1169 13.4239 12.2561C13.2154 12.3953 12.9703 12.4695 12.7196 12.4694ZM12.9718 14.6306C12.9338 14.6694 12.0252 15.5948 9.96999 15.5948C7.90339 15.5948 7.07739 14.657 7.04279 14.6166C6.98715 14.5512 6.95966 14.4665 6.96634 14.3809C6.97301 14.2954 7.0133 14.2159 7.07839 14.16C7.14354 14.1047 7.22777 14.0772 7.31298 14.0834C7.39818 14.0897 7.47754 14.1291 7.53399 14.1932C7.55239 14.214 8.24199 14.9474 9.96999 14.9474C11.7268 14.9474 12.4978 14.1878 12.506 14.1804C12.5662 14.1211 12.6473 14.0876 12.7318 14.0872C12.8164 14.0868 12.8977 14.1195 12.9585 14.1783C13.0193 14.237 13.0547 14.3172 13.0572 14.4017C13.0597 14.4862 13.029 14.5684 12.9718 14.6306ZM6.16179 11.2018C6.15888 11.0335 6.18953 10.8663 6.25194 10.71C6.31436 10.5536 6.40729 10.4113 6.52531 10.2913C6.64334 10.1712 6.78409 10.0759 6.93935 10.0109C7.09461 9.94586 7.26127 9.9124 7.4296 9.91248C7.59793 9.91256 7.76456 9.94617 7.91976 10.0114C8.07496 10.0765 8.21562 10.172 8.33353 10.2921C8.45144 10.4123 8.54424 10.5547 8.6065 10.7111C8.66877 10.8675 8.69926 11.0347 8.69619 11.203C8.69013 11.5352 8.55388 11.8517 8.31677 12.0844C8.07965 12.3171 7.76064 12.4474 7.4284 12.4473C7.09616 12.4471 6.77727 12.3165 6.54038 12.0836C6.30349 11.8506 6.16753 11.534 6.16179 11.2018Z" fill="#AAAAAA"/>
</svg>
