<svg width="20" height="20" viewBox="0 0 20 20" fill="none" xmlns="http://www.w3.org/2000/svg">
<path d="M17.7 5.22403C17.1234 5.47949 16.5117 5.64708 15.8854 5.72123C16.5451 5.32651 17.0388 4.70539 17.2744 3.97363C16.6543 4.34174 15.9758 4.60096 15.2682 4.74003C14.9726 4.42472 14.6153 4.17347 14.2186 4.00187C13.8219 3.83027 13.3942 3.74197 12.962 3.74243C11.2172 3.74243 9.80241 5.15683 9.80241 6.90203C9.80241 7.14943 9.83041 7.39083 9.88441 7.62223C7.25841 7.49043 4.93041 6.23243 3.37201 4.32063C3.09102 4.80285 2.94337 5.35113 2.94421 5.90923C2.94379 6.42944 3.07188 6.94169 3.3171 7.40047C3.56231 7.85925 3.91706 8.25035 4.34981 8.53903C3.84815 8.5231 3.35755 8.38761 2.91881 8.14383C2.91841 8.15703 2.91841 8.17003 2.91841 8.18363C2.91841 9.71403 4.00741 10.991 5.45261 11.2816C4.98726 11.4076 4.49935 11.4261 4.02581 11.3356C4.42781 12.5906 5.59461 13.5044 6.97721 13.53C5.85799 14.4084 4.47591 14.8848 3.05321 14.8826C2.79821 14.8826 2.54681 14.8678 2.29941 14.8384C3.74407 15.7667 5.42544 16.2594 7.14261 16.2576C12.9542 16.2576 16.1322 11.4434 16.1322 7.26863C16.1322 7.13183 16.129 6.99523 16.123 6.85943C16.7419 6.41261 17.276 5.85877 17.7 5.22403Z" fill="#AAAAAA"/>
</svg>
